<?xml version="1.0" encoding="UTF-8"?>
<!DOCTYPE svg PUBLIC "-//W3C//DTD SVG 1.1//EN" "http://www.w3.org/Graphics/SVG/1.1/DTD/svg11.dtd">
<!-- Creator: CorelDRAW -->
<svg xmlns="http://www.w3.org/2000/svg" xml:space="preserve" width="131.79mm" height="131.79mm" style="shape-rendering:geometricPrecision; text-rendering:geometricPrecision; image-rendering:optimizeQuality; fill-rule:evenodd; clip-rule:evenodd"
viewBox="0 0 131.79 131.79"
 xmlns:xlink="http://www.w3.org/1999/xlink"
 version="1.1">
 <defs>
  <style type="text/css">
   <![CDATA[
    .str0 {stroke:#FFF;stroke-width:0.0762}
    .str4 {stroke:#FFF;stroke-width:4;stroke-linecap:round;stroke-linejoin:round}
    .str5 {stroke:#FFF;stroke-width:4;stroke-linecap:round;stroke-linejoin:round}
    .str6 {stroke:#FFF;stroke-width:5;stroke-linecap:round;stroke-linejoin:round}
    .str3 {stroke:#FFF;stroke-width:5;stroke-linecap:round;stroke-linejoin:round}
    .str2 {stroke:#FFF;stroke-width:5;stroke-linecap:round;stroke-linejoin:round}
    .str1 {stroke:#FFF;stroke-width:5;stroke-linecap:round;stroke-linejoin:round}
    .fil0 {fill:none}
    .fil6 {fill:#FFF}
    .fil7 {fill:#FFF}
    .fil4 {fill:#FFF}
    .fil2 {fill:#FFF}
    .fil1 {fill:#FFF}
    .fil5 {fill:#FFF;fill-rule:nonzero}
    .fil3 {fill:#FFF;fill-rule:nonzero}
   ]]>
  </style>
 </defs>
 <g id="Veiculo" visibility="hidden">
  <metadata id="CorelCorpID_0Corel-Layer"/>
  <rect class="fil0 str0" width="131.79" height="131.79"/>
  <g>
   <path class="fil0 str1" d="M103.894 29.6488c-1.0979,-3.2398 -4.1727,-5.5466 -7.7974,-5.5466l-60.4034 0c-3.6247,0 -6.6445,2.3068 -7.7974,5.5466l-11.4222 32.8925 0 43.9297c0,3.0197 2.4709,5.4915 5.4916,5.4915l5.4906 0c3.0198,0 5.4916,-2.4708 5.4916,-5.4915l0 -5.4916 65.895 0.001 0 5.4916c0,3.0197 2.4708,5.4916 5.4916,5.4916l5.4906 -0.0011c3.0197,0 5.4915,-2.4708 5.4915,-5.4915l0 -43.9297 -11.4221 -32.8925zm-68.2008 54.8578c-4.5577,0 -8.2374,-3.6787 -8.2374,-8.2374 0,-4.5586 3.6797,-8.2363 8.2374,-8.2363 4.5576,0 8.2374,3.6787 8.2374,8.2374 0,4.5587 -3.6798,8.2363 -8.2374,8.2363zm60.4034 0c-4.5577,0 -8.2374,-3.6787 -8.2374,-8.2374 0,-4.5586 3.6787,-8.2373 8.2374,-8.2373 4.5587,0 8.2374,3.6787 8.2374,8.2373 0,4.5587 -3.6787,8.2374 -8.2374,8.2374zm-63.3967 -29.1425l7.1136 -21.3399 52.1628 0.0009 7.1136 21.339 -66.39 0z"/>
  </g>
 </g>
 <g id="Veiculo_x0020_-_x0020_preenchido" visibility="hidden">
  <metadata id="CorelCorpID_1Corel-Layer"/>
  <path class="fil1" d="M105.316 31.5664c-1.139,-3.3609 -4.3288,-5.7541 -8.0891,-5.7541l-62.6633 0c-3.7604,0 -6.8931,2.3932 -8.0891,5.7541l-11.8495 34.1231 0 45.5733c0,3.1327 2.5632,5.697 5.697,5.697l5.696 0c3.1327,0 5.6971,-2.5632 5.6971,-5.697l0 -5.6971 68.3603 0.0011 0 5.697c0,3.1328 2.5633,5.6971 5.6971,5.6971l5.696 -0.0011c3.1327,0 5.697,-2.5632 5.697,-5.697l0 -45.5733 -11.8495 -34.1231zm-70.7524 56.9103c-4.7282,0 -8.5456,-3.8164 -8.5456,-8.5456 0,-4.7292 3.8174,-8.5445 8.5456,-8.5445 4.7282,0 8.5456,3.8163 8.5456,8.5456 0,4.7292 -3.8174,8.5445 -8.5456,8.5445zm62.6633 0c-4.7282,0 -8.5456,-3.8164 -8.5456,-8.5456 0,-4.7292 3.8163,-8.5456 8.5456,-8.5456 4.7292,0 8.5456,3.8164 8.5456,8.5456 0,4.7292 -3.8164,8.5456 -8.5456,8.5456zm-71.2089 -28.4842l8.5456 -25.6357 62.6633 0.0011 8.5456 25.6346 -79.7545 0z"/>
 </g>
 <g id="Energia" visibility="hidden">
  <metadata id="CorelCorpID_2Corel-Layer"/>
  <g>
   <polygon class="fil0 str2" points="38.4391,10.9822 38.4391,71.3856 54.9128,71.3866 54.9128,120.808 93.3519,54.9128 71.3866,54.9128 93.3519,10.9832 "/>
  </g>
 </g>
 <g id="Energia_x0020_-_x0020_preenchido" visibility="hidden">
  <metadata id="CorelCorpID_3Corel-Layer"/>
  <polygon class="fil2" points="39.6266,13.3572 39.6266,71.1481 55.3879,71.1491 55.3879,118.433 92.1644,55.3878 71.1491,55.3878 92.1644,13.3582 "/>
  <path class="fil3" d="M41.5425 15.2633l0 53.9789 13.8477 0.0008c1.0526,0 1.906,0.8535 1.906,1.9061l0 40.2276 31.5443 -54.0754 -17.689 0c-1.0567,0 -1.9135,-0.8568 -1.9135,-1.9135 0,-0.3713 0.1056,-0.7175 0.2886,-1.0109l19.5569 -39.1128 -47.541 -0.0008zm-3.827 55.8848l0 -57.7909 0.0075 0c0,-1.0526 0.8534,-1.906 1.906,-1.906l52.5378 0.001 0 0.0006c0.2868,-0.0002 0.5781,0.0642 0.8521,0.2011 0.9411,0.4706 1.3227,1.6152 0.8521,2.5564l-19.6325 39.264 17.9283 0 0 0.0046c0.3252,-0.0002 0.6551,0.0823 0.9567,0.257 0.9123,0.5283 1.2235,1.6964 0.6952,2.6086l-36.7766 63.045 -0.0026 -0.0015c-0.3299,0.5683 -0.9448,0.9508 -1.6493,0.9508 -1.0526,0 -1.906,-0.8534 -1.906,-1.906l0 -45.3778 -13.6884 -0.0008c-0.055,0.0047 -0.1105,0.0074 -0.1668,0.0074 -1.0567,0 -1.9135,-0.8567 -1.9135,-1.9135z"/>
 </g>
 <g id="Agua" visibility="hidden">
  <metadata id="CorelCorpID_4Corel-Layer"/>
  <g>
   <path class="fil0 str3" d="M90.0762 48.2303l-29.6867 -29.6867 -29.6866 29.6867c-16.3643,16.3643 -16.3643,42.9565 0,59.3208 8.1821,8.1821 18.9344,12.2727 29.6866,12.2727 10.7523,0 21.5045,-4.0916 29.6867,-12.2737 16.3643,-16.3643 16.3643,-42.9565 0,-59.3208l0 0.001zm17.4062 -22.4017l-7.285 -7.285 -7.2849 7.285c-4.0157,4.0157 -4.0157,10.5412 0,14.557 2.0079,2.0078 4.6464,3.0116 7.2849,3.0116 2.6386,0 5.2771,-1.004 7.285,-3.0119 4.0157,-4.0157 4.0157,-10.5413 0,-14.557l0 0.0003z"/>
  </g>
 </g>
 <g id="Agura_x0020_-_x0020_preenchido" visibility="hidden">
  <metadata id="CorelCorpID_5Corel-Layer"/>
  <path class="fil4" d="M88.9614 49.1422l-28.3947 -28.3947 -28.3946 28.3947c-15.6521,15.6521 -15.6521,41.087 0,56.7391 7.826,7.826 18.1104,11.7386 28.3946,11.7386 10.2844,0 20.5686,-3.9135 28.3947,-11.7395 15.6522,-15.6521 15.6522,-41.087 0,-56.7391l0 0.0009zm16.6487 -21.4267l-6.9679 -6.968 -6.9679 6.968c-3.8409,3.8409 -3.8409,10.0824 0,13.9234 1.9205,1.9204 4.4442,2.8806 6.9679,2.8806 2.5237,0 5.0474,-0.9603 6.9679,-2.8809 3.8409,-3.8409 3.8409,-10.0825 0,-13.9234l0 0.0003z"/>
  <path class="fil5" d="M87.5829 50.4688l-27.0162 -27.0162 -27.042 27.0422 -0.0006 0.0005c-7.457,7.4573 -11.1855,17.239 -11.1855,27.0165l0.0074 0c0,9.7819 3.7259,19.5636 11.1775,27.0158l0.0012 0.0012 0.0011 0.0011c1.0588,1.0586 2.1475,2.0301 3.2604,2.9147 1.1263,0.8953 2.2932,1.7186 3.494,2.4694 6.1762,3.862 13.2298,5.7929 20.2865,5.7929l0.0016 0 0 0.0075c4.8901,-0.0001 9.788,-0.9339 14.401,-2.8009 0.7727,-0.3126 1.5146,-0.6398 2.2233,-0.981 3.7609,-1.8102 7.29,-4.2784 10.4163,-7.4047l0.0006 -0.0006c7.457,-7.4573 11.1855,-17.2389 11.1855,-27.0164l-0.0075 0c0,-9.7657 -3.7139,-19.5312 -11.1409,-26.9788 -0.0217,-0.0206 -0.043,-0.0417 -0.0637,-0.0632zm-25.6636 -31.0738l28.3651 28.365 0.0296 0.0287 0.0012 0.0011c8.1989,8.1996 12.2983,18.9606 12.2983,29.721l-0.0075 0c0,10.7653 -4.0972,21.527 -12.2914,29.7215l-0.0006 0.0006c-3.4253,3.4254 -7.3096,6.138 -11.4624,8.137 -0.83,0.3995 -1.6462,0.7614 -2.4476,1.0857 -5.0559,2.0462 -10.4421,3.0696 -15.8357,3.0698l0 0.0075 -0.0016 0c-7.7517,0 -15.5066,-2.1253 -22.3041,-6.3758 -1.3219,-0.8266 -2.6086,-1.7346 -3.8527,-2.7235 -1.2576,-0.9996 -2.4567,-2.0662 -3.5892,-3.1986l-0.0011 -0.0011 -0.0012 -0.0012c-8.1989,-8.1995 -12.2983,-18.9605 -12.2983,-29.7209l0.0075 0c0,-10.7653 4.0971,-21.527 12.2914,-29.7216l0.0006 -0.0005 28.3946 -28.3947c0.7469,-0.747 1.9582,-0.747 2.7051,0zm42.3122 9.647l-5.5893 -5.5894 -5.6153 5.6154 -0.0006 0.0006c-0.4403,0.4404 -0.813,0.9096 -1.1182,1.3974 -0.3173,0.507 -0.5693,1.0318 -0.7561,1.5634 -0.9809,2.7918 -0.3559,6.0261 1.8749,8.257l0.0011 0.0011c0.03,0.03 0.0584,0.0609 0.0859,0.0923 0.1856,0.1791 0.3829,0.3509 0.5902,0.5157 0.2317,0.1842 0.4729,0.3542 0.7221,0.5099 1.2807,0.8007 2.7468,1.2011 4.216,1.2011l0.0015 0 0 0.0075c1.0097,-0.0001 2.0273,-0.1956 2.9921,-0.5861 0.1784,-0.0722 0.3324,-0.1394 0.4609,-0.2013 0.7747,-0.3729 1.5067,-0.8864 2.1609,-1.5405l0.0005 -0.0006c1.5465,-1.5466 2.3198,-3.5775 2.3198,-5.6086l0.0074 0c0,-1.9892 -0.7442,-3.9804 -2.2322,-5.5191 -0.0422,-0.0367 -0.0828,-0.0755 -0.1216,-0.1158zm-4.2368 -9.647l6.9591 6.959 0.0089 0.0086 0.0011 0.0012 -0.0037 0.0037 0.0037 0.0037c2.2883,2.2891 3.4325,5.2964 3.4325,8.3057l0.0075 0c0,3.0095 -1.1469,6.0197 -3.4406,8.3137l-0.0005 0.0006c-0.9532,0.9531 -2.0403,1.7111 -3.2071,2.2728 -0.249,0.1199 -0.4776,0.222 -0.6851,0.306 -1.4076,0.5696 -2.9134,0.8548 -4.4268,0.855l0 0.0074 -0.0015 0c-2.164,0 -4.3314,-0.5947 -6.2336,-1.7839 -0.37,-0.2312 -0.731,-0.4861 -1.0808,-0.7641 -0.302,-0.2399 -0.5996,-0.502 -0.8909,-0.7862 -0.0391,-0.0334 -0.0771,-0.0687 -0.114,-0.1056l-0.0011 -0.0011c-3.2996,-3.2997 -4.2234,-8.0853 -2.7715,-12.2176 0.2861,-0.8145 0.658,-1.5955 1.1147,-2.3255 0.4689,-0.7493 1.0214,-1.45 1.6562,-2.0849l0.0006 -0.0006 6.9678 -6.9679c0.7469,-0.747 1.9582,-0.747 2.7051,0z"/>
 </g>
 <g id="Home">
  <metadata id="CorelCorpID_6Corel-Layer"/>
  <g>
   <path class="fil6" d="M117.262 63.7932l-47.0563 -38.0108 -2.6115 -2.1687c-0.9852,-0.8185 -2.414,-0.8185 -3.399,0l-13.5788 11.2765 0 -4.7677c0,-1.4695 -1.1915,-2.6609 -2.6605,-2.6609l-10.1438 0.0001c-1.4692,0 -2.6606,1.1916 -2.6606,2.6608l0 17.5642 -20.6337 16.8343c-1.1381,0.929 -1.3086,2.6048 -0.3794,3.7436 0.5263,0.6453 1.2913,0.979 2.0629,0.979 0.5914,0 1.1865,-0.1964 1.6817,-0.5989l8.0491 -6.5665 0 44.0509c0,1.4695 1.1911,2.6609 2.6606,2.6609l28.4332 0.0001c1.4697,0 2.661,-1.1916 2.661,-2.6609l0 -20.6442 12.4157 0 0 20.6442c0,1.4695 1.1915,2.6609 2.661,2.6609l28.4334 0c1.4697,0 2.6608,-1.1916 2.6608,-2.6609l-0.0001 -44.7062 8.0594 6.5099c0.4921,0.3973 1.084,0.5911 1.6712,0.5911 0.7753,0 1.546,-0.3379 2.0708,-0.9887 0.9243,-1.1435 0.7459,-2.8188 -0.3971,-3.7421zm-76.7889 -31.0099l4.8215 0 0 6.3418 -4.8215 3.9026 0 -10.2444zm60.0633 25.1043l0 45.5804 -23.1116 0 0 -20.6446c0,-1.4694 -1.1915,-2.6605 -2.6608,-2.6605l-17.7379 0c-1.4696,0 -2.6605,1.1916 -2.6605,2.6605l0 20.6446 -23.1118 0 0 -45.5804 10.3446 -8.5909c0,0 24.2214,-19.8466 24.3759,-20.1109l34.5621 28.7018z"/>
  </g>
  <path class="fil0" d="M103.54 114.017l0 -44.2693 16.5997 0 -55.335 -49.8031 -55.3349 49.8031 16.5997 0 0 44.2693c58.8171,0 18.6534,0 77.4705,0z"/>
 </g>
 <g id="Arrow" visibility="hidden">
  <metadata id="CorelCorpID_7Corel-Layer"/>
  <g>
   <polygon class="fil0 str4" points="46.9965,91.6275 71.8807,66.6898 46.9965,41.7521 54.656,34.0905 87.2553,66.6898 54.656,99.2891 "/>
  </g>
 </g>
 <g id="Money" visibility="hidden">
  <metadata id="CorelCorpID_8Corel-Layer"/>
  <g>
   <path class="fil0 str5" d="M67.0588 60.0072c-12.3827,-3.2183 -16.3659,-6.5459 -16.3659,-11.729 0,-5.946 5.5089,-10.0921 14.7289,-10.0921 9.7106,0 13.3103,4.6368 13.6382,11.4549l12.0548 0c-0.3815,-9.3829 -6.1089,-18.0008 -17.5101,-20.7841l0 -11.9455 -16.3659 0 0 11.7826c-10.5827,2.2906 -19.0914,9.1643 -19.0914,19.6914 0,12.6011 10.4199,18.8749 25.6374,22.5283 13.6382,3.274 16.3658,8.0736 16.3658,13.1454 0,3.7647 -2.672,9.7643 -14.7288,9.7643 -11.2363,0 -15.6566,-5.0182 -16.2566,-11.4549l-11.9991 0.0041c0.6556,11.9456 9.6013,18.6564 20.0748,20.8934l-0.0021 11.8362 16.3659 0 0 -11.729c10.6363,-2.0184 19.0914,-8.1829 19.0914,-19.3656 0,-15.4917 -13.2547,-20.7841 -25.6373,-24.0024l0 0.002z"/>
  </g>
 </g>
 <g id="User" visibility="hidden">
  <metadata id="CorelCorpID_9Corel-Layer"/>
  <g>
   <path class="fil0 str1" d="M65.4108 64.4198c12.1676,0 22.0233,-9.8556 22.0233,-22.0232 0,-12.1676 -9.8557,-22.0232 -22.0233,-22.0232 -12.1676,0 -22.0232,9.8556 -22.0232,22.0232 0,12.1676 9.8556,22.0232 22.0232,22.0232zm0 14.3023c-14.7002,0 -44.0485,7.3771 -44.0485,22.0232l0 11.0127 88.0971 0 0 -11.0127c0,-14.6461 -29.3463,-22.0232 -44.0486,-22.0232z"/>
  </g>
 </g>
 <g id="Note" visibility="hidden">
  <metadata id="CorelCorpID_10Corel-Layer"/>
  <path class="fil0" d="M85.6213 45.2534l-13.9651 -13.9651 -37.2393 37.2393 -0.0014 13.9651 13.9651 0 37.2393 -37.2393 0.0014 0zm11.0221 -11.0235c1.4525,-1.4525 1.4525,-3.7988 0,-5.2513l-8.7138 -8.7138c-1.4525,-1.4525 -3.7988,-1.4525 -5.2513,0l-7.2979 7.2993 13.9637 13.965 7.2993 -7.2992zm-77.1233 59.4354l89.3754 0 0 14.8954 -89.3754 0 0 -14.8954z"/>
  <g>
   <line class="fil0 str1" x1="19.5201" y1="109.783" x2="108.896" y2= "109.783" />
  </g>
  <path class="fil1" d="M102.23 36.744c0.9856,-0.9855 0.9856,-2.5775 0,-3.563l-5.9124 -5.9124c-0.9855,-0.9856 -2.5775,-0.9856 -3.563,0l-4.9517 4.9526 9.4745 9.4754 4.9526 -4.9526z"/>
  <polygon class="fil1" points="35.2904,84.6264 35.2173,84.6995 32.1301,97.3152 44.7456,94.2286 44.8191,94.1551 "/>
  <polygon class="fil1" points="92.7027,46.2727 83.1734,36.7434 35.2904,84.6264 44.8191,94.1551 92.7016,46.2727 "/>
 </g>
 <g id="Block" visibility="hidden">
  <metadata id="CorelCorpID_11Corel-Layer"/>
  <path class="fil0" d="M67.1676 19.3992c-24.7726,0 -44.8773,20.1047 -44.8773,44.8773 0,24.7726 20.1047,44.8773 44.8773,44.8773 24.7726,0 44.8773,-20.1047 44.8773,-44.8773 0,-24.7726 -20.1047,-44.8773 -44.8773,-44.8773zm-35.9028 44.8773c0,-19.8367 16.0661,-35.9028 35.9028,-35.9028 8.3028,0 15.9321,2.8275 21.9909,7.5835l-50.3085 50.3102c-4.7577,-6.0588 -7.5852,-13.6881 -7.5852,-21.9909zm35.9028 35.9028c-8.3028,0 -15.9321,-2.8275 -21.9909,-7.5835l50.3085 -50.3102c4.7577,6.0588 7.5852,13.6881 7.5852,21.9909 0,19.8367 -16.0661,35.9028 -35.9028,35.9028z"/>
  <g>
   <path class="fil0 str1" d="M67.1676 19.3992c-24.7726,0 -44.8773,20.1047 -44.8773,44.8773 0,24.7726 20.1047,44.8773 44.8773,44.8773 24.7726,0 44.8773,-20.1047 44.8773,-44.8773 0,-24.7726 -20.1047,-44.8773 -44.8773,-44.8773zm-30.8809 75.7366l50.3085 -50.3102m-39.5658 39.6874l50.3085 -50.3102"/>
  </g>
 </g>
 <g id="Attention" visibility="hidden">
  <metadata id="CorelCorpID_12Corel-Layer"/>
  <g>
   <polygon class="fil0 str1" points="14.4461,109.392 114.785,109.392 64.6158,22.7348 "/>
  </g>
  <g>
   <polygon class="fil0 str1" points="62.9917,92.9419 67.0531,92.9419 67.0531,97.0033 62.9917,97.0025 "/>
  </g>
  <g>
   <polygon class="fil0 str1" points="63.2295,52.764 66.8153,52.764 66.8153,83.45 63.2295,83.45 "/>
  </g>
 </g>
 <g id="Settings" visibility="hidden">
  <metadata id="CorelCorpID_13Corel-Layer"/>
  <g>
   <path class="fil0 str6" d="M100.447 73.4011c0.1879,-1.5012 0.3279,-3.0006 0.3279,-4.5957 0,-1.5951 -0.14,-3.0945 -0.3279,-4.5957l9.8951 -7.7382c0.8915,-0.7036 1.1255,-1.9691 0.5636,-3.0006l-9.3793 -16.226c-0.5637,-1.0315 -1.8291,-1.4072 -2.8606,-1.0315l-11.6764 4.6897c-2.4387,-1.8752 -5.0654,-3.4225 -7.9242,-4.5958l-1.7812 -12.426c-0.1436,-1.1255 -1.129,-1.9691 -2.3006,-1.9691l-18.7587 0c-1.1715,0 -2.1569,0.8436 -2.2969,1.9691l-1.7813 12.426c-2.8606,1.1716 -5.4872,2.7667 -7.9242,4.5958l-11.6763 -4.6897c-1.0794,-0.4218 -2.297,0 -2.8606,1.0315l-9.3794 16.226c-0.6097,1.0315 -0.3279,2.297 0.5636,3.0006l9.8951 7.7382c-0.1878,1.5012 -0.3279,3.0484 -0.3279,4.5957 0,1.5473 0.1401,3.0945 0.3279,4.5957l-9.8951 7.7382c-0.8915,0.7036 -1.1254,1.9691 -0.5636,3.0006l9.3794 16.226c0.5636,1.0315 1.829,1.4072 2.8606,1.0315l11.6763 -4.6897c2.4388,1.8752 5.0654,3.4225 7.9242,4.5958l1.7813 12.426c0.14,1.1255 1.1254,1.9691 2.2969,1.9691l18.7587 0c1.1716,0 2.157,-0.8436 2.297,-1.9691l1.7812 -12.426c2.8606,-1.1716 5.4873,-2.7667 7.9243,-4.5958l11.6763 4.6897c1.0794,0.4218 2.297,0 2.8606,-1.0315l9.3794 -16.226c0.5636,-1.0315 0.3279,-2.297 -0.5636,-3.0006l-9.8952 -7.7382 0.0036 0zm-34.8429 11.8164c-9.0497,0 -16.4121,-7.3624 -16.4121,-16.4121 0,-9.0497 7.3624,-16.4121 16.4121,-16.4121 9.0497,0 16.4121,7.3624 16.4121,16.4121 0,9.0497 -7.3624,16.4121 -16.4121,16.4121z"/>
  </g>
  <g>
   <g>
    <g>
     <path class="fil7" d="M68.8451 113.797l4.8935 -2.0173c2.6166,-1.0786 3.855,-4.0946 2.7764,-6.6912l-1.2584 -3.0361c2.4568,-1.8176 4.594,-3.9747 6.4316,-6.4315l3.036 1.2583c1.2583,0.5193 2.6565,0.5193 3.9148,0 1.2584,-0.5193 2.2571,-1.518 2.7764,-2.7763l2.0373 -4.8936c1.0786,-2.6166 -0.1598,-5.6126 -2.7763,-6.6912l-4.4941 -1.8576c-1.0187,-0.4194 -2.1572,0.06 -2.5767,1.0786 -0.4194,1.0186 0.06,2.1571 1.0786,2.5766l4.4941 1.8576c0.5992,0.2396 0.8789,0.9387 0.6392,1.538l-2.0373 4.8935c-0.1199,0.2796 -0.3396,0.5194 -0.6392,0.6392 -0.2796,0.1198 -0.5992,0.1198 -0.8988,0l-4.4942 -1.8576c-0.8788,-0.3595 -1.8775,-0.0599 -2.3968,0.7191 -2.0173,3.036 -4.574,5.5927 -7.61,7.61 -0.779,0.5193 -1.0986,1.538 -0.7391,2.3968l1.8576 4.4942c0.2397,0.5992 -0.04,1.2783 -0.6392,1.538l-4.8935 2.0173c-0.2797,0.1198 -0.5993,0.1198 -0.8989,0 -0.2796,-0.1198 -0.5193,-0.3396 -0.6391,-0.6392l-1.8576 -4.4941c-0.3595,-0.8788 -1.2783,-1.3782 -2.2171,-1.1784 -3.5554,0.719 -7.1906,0.699 -10.7459,0 -0.9188,-0.1798 -1.8576,0.3195 -2.2171,1.1784l-1.8576 4.4941c-0.2397,0.5992 -0.9388,0.8789 -1.538,0.6392l-4.8936 -2.0373c-0.2796,-0.1199 -0.5193,-0.3396 -0.6391,-0.6392 -0.1199,-0.2796 -0.1199,-0.5992 0,-0.8988l1.8575 -4.4942c0.3595,-0.8788 0.06,-1.8775 -0.719,-2.3968 -3.036,-2.0173 -5.5927,-4.574 -7.61,-7.61 -0.5194,-0.779 -1.538,-1.0986 -2.3969,-0.7391l-4.4941 1.8576c-0.2996,0.1198 -0.5992,0.1198 -0.8988,0 -0.2796,-0.1198 -0.5194,-0.3396 -0.6392,-0.6392l-2.0173 -4.8935c-0.1199,-0.2797 -0.1199,-0.5993 0,-0.8989 0.1198,-0.2796 0.3395,-0.5193 0.6391,-0.6391l4.4941 -1.8576c0.8789,-0.3595 1.3583,-1.2783 1.1785,-2.2171 -0.7191,-3.5553 -0.6991,-7.1906 0,-10.7459 0.1798,-0.9188 -0.3196,-1.8576 -1.1785,-2.2171l-4.4941 -1.8576c-0.5992,-0.2397 -0.8788,-0.9388 -0.6391,-1.538l2.0373 -4.8936c0.2397,-0.5992 0.9388,-0.8788 1.538,-0.6391l4.4941 1.8575c0.8789,0.3595 1.8776,0.06 2.3969,-0.719 2.0173,-3.036 4.574,-5.5927 7.61,-7.61 0.779,-0.5194 1.0985,-1.538 0.739,-2.3969l-1.8575 -4.4941c-0.1199,-0.2796 -0.1199,-0.5992 0,-0.8988 0.1198,-0.2796 0.3395,-0.5194 0.6391,-0.6392l4.8936 -2.0173c0.2796,-0.1199 0.5992,-0.1199 0.8988,0 0.2796,0.1198 0.5194,0.3395 0.6392,0.6391l1.8576 4.4942c0.4194,1.0186 1.5779,1.498 2.5766,1.0785 1.0186,-0.4194 1.498,-1.5779 1.0785,-2.5766l-1.8575 -4.4941c-0.5194,-1.2584 -1.518,-2.2571 -2.7764,-2.7764 -0.6391,-0.2596 -1.2983,-0.3995 -1.9574,-0.3995 -0.6592,0 -1.3382,0.1399 -1.9575,0.3995l-4.8935 2.0174c-1.2584,0.5193 -2.2571,1.518 -2.7764,2.7763 -0.5193,1.2584 -0.5193,2.6565 0,3.9149l1.2584 3.036c-2.4568,1.8176 -4.594,3.9748 -6.4316,6.4315l-3.036 -1.2583c-2.6166,-1.0786 -5.6126,0.1598 -6.6912,2.7763l-2.0573 4.8936c-1.0786,2.6166 0.1598,5.6126 2.7763,6.6912l3.036 1.2584c-0.4394,3.016 -0.4394,6.072 0,9.0881l-3.036 1.2583c-1.2583,0.5193 -2.257,1.518 -2.7763,2.7763 -0.5193,1.2584 -0.5194,2.6565 0,3.9149l2.0173 4.8935c0.5194,1.2584 1.518,2.2571 2.7764,2.7764 1.2583,0.5193 2.6565,0.5193 3.9148,0l3.036 -1.2584c1.8176,2.4568 3.9748,4.594 6.4316,6.4316l-1.2584 3.036c-0.5193,1.2584 -0.5193,2.6565 0,3.9149 0.5194,1.2583 1.518,2.257 2.7764,2.7763l4.8935 2.0373c2.6166,1.0786 5.6127,-0.1597 6.6913,-2.7763l1.2583 -3.036c3.0161,0.4394 6.072,0.4394 9.0881,0l1.2583 3.036c0.5194,1.2583 1.518,2.2571 2.7764,2.7763 1.2585,0.5197 2.6567,0.5197 3.9151,0.0003z"/>
     <path class="fil7" d="M40.2825 76.8252c0.0599,8.8284 7.2705,15.9591 16.0789,15.9591 0.04,0 0.0799,0 0.1199,0 4.2943,-0.0399 8.329,-1.7377 11.3451,-4.7937 3.016,-3.056 4.6539,-7.1107 4.6339,-11.4051 0,-1.0785 -0.8988,-1.9574 -1.9774,-1.9574l-0.02 0c-1.0985,0 -1.9774,0.8988 -1.9574,1.9974 0.02,3.2357 -1.2184,6.2917 -3.4954,8.6087 -2.277,2.3169 -5.313,3.5953 -8.5488,3.6153 -0.02,0 -0.0599,0 -0.0799,0 -6.6513,0 -12.0841,-5.3929 -12.1241,-12.0442 -0.0399,-6.6913 5.353,-12.1641 12.0442,-12.224 1.0986,0 1.9774,-0.8988 1.9575,-1.9974 0,-1.0786 -0.8989,-1.9574 -1.9774,-1.9574 0,0 0,0 -0.02,0 -8.8884,0.0599 -16.039,7.3304 -15.9791,16.1987z"/>
     <path class="fil7" d="M89.7376 17.2034l-3.8549 0c-2.3569,0 -4.2744,1.9175 -4.2744,4.2744l0 1.9774c-1.9175,0.5194 -3.7551,1.2784 -5.4728,2.277l-1.3982 -1.3981c-0.799,-0.799 -1.8776,-1.2584 -3.0161,-1.2584 -1.1385,0 -2.2171,0.4395 -3.016,1.2584l-2.7165 2.7164c-0.7989,0.799 -1.2583,1.8776 -1.2583,3.0161 0,1.1385 0.4394,2.2171 1.2583,3.016l1.3982 1.3982c-0.9987,1.7177 -1.7577,3.5553 -2.277,5.4728l-1.9774 0c-2.3569,0 -4.2744,1.9175 -4.2744,4.2744l0 3.8549c0,2.3569 1.9175,4.2744 4.2744,4.2744l1.9774 0c0.5194,1.9175 1.2784,3.7551 2.277,5.4729l-1.3981 1.3981c-0.799,0.799 -1.2584,1.8776 -1.2584,3.0161 0,1.1385 0.4395,2.2171 1.2584,3.0161l2.7164 2.7164c0.799,0.799 1.8776,1.2583 3.0161,1.2583 1.1385,0 2.2171,-0.4394 3.016,-1.2583l1.3982 -1.3982c1.7177,0.9987 3.5553,1.7577 5.4728,2.277l0 1.9774c0,2.3569 1.9175,4.2744 4.2744,4.2744l3.8549 0c2.3569,0 4.2744,-1.9175 4.2744,-4.2744l0 -1.9774c1.9175,-0.5193 3.7551,-1.2783 5.4729,-2.277l1.3981 1.3982c0.799,0.7989 1.8776,1.2583 3.0161,1.2583 1.1385,0 2.2171,-0.4394 3.0161,-1.2583l2.7164 -2.7165c1.6578,-1.6578 1.6578,-4.3743 0,-6.0321l-1.3982 -1.3981c0.9987,-1.7178 1.7577,-3.5554 2.277,-5.4729l1.9774 0c2.3569,0 4.2744,-1.9175 4.2744,-4.2744l0 -3.8549c0,-2.3569 -1.9175,-4.2744 -4.2744,-4.2744l-1.9774 0c-0.5193,-1.9175 -1.2783,-3.7551 -2.277,-5.4729l1.3982 -1.3981c1.6578,-1.6579 1.6578,-4.3743 0,-6.0321l-2.7165 -2.7164c-0.7989,-0.799 -1.8775,-1.2584 -3.016,-1.2584 -1.1385,0 -2.2172,0.4395 -3.0161,1.2584l-1.3982 1.3981c-1.7177,-0.9986 -3.5553,-1.7576 -5.4728,-2.277l0 -1.9774c-0.02,-2.3569 -1.9374,-4.2744 -4.2744,-4.2744zm8.9283 12.6634c0.3396,0.2197 0.7191,0.3396 1.0986,0.3396 0.5193,0 1.0187,-0.1998 1.3982,-0.5793l2.4967 -2.4967c0.0799,-0.0799 0.1598,-0.0999 0.2197,-0.0999 0.06,0 0.1398,0.02 0.2197,0.0999l2.7165 2.7164c0.1198,0.1199 0.1198,0.3196 0,0.4395l-2.4967 2.4967c-0.6592,0.6591 -0.779,1.7177 -0.2397,2.4967 1.4381,2.1372 2.4168,4.5141 2.9162,7.0308 0.1797,0.9188 0.9986,1.5979 1.9374,1.5979l3.5353 0c0.1798,0 0.3196,0.1398 0.3196,0.3195l0 3.855c0,0.1798 -0.1398,0.3195 -0.3196,0.3195l-3.5353 0.0001c-0.9388,0 -1.7577,0.6591 -1.9375,1.5979 -0.4993,2.5167 -1.4781,4.8936 -2.9162,7.0308 -0.5193,0.779 -0.4194,1.8376 0.2397,2.4967l2.4967 2.4967c0.1199,0.1199 0.1199,0.3196 0,0.4395l-2.7164 2.7164c-0.0799,0.0799 -0.1598,0.0999 -0.2197,0.0999 -0.06,0 -0.1399,-0.02 -0.2198,-0.0999l-2.4967 -2.5367c-0.6591,-0.6591 -1.7177,-0.7789 -2.4967,-0.2396 -2.1372,1.4381 -4.5141,2.4168 -7.0308,2.9162 -0.9188,0.1797 -1.5979,0.9986 -1.5979,1.9374l0 3.5353c0,0.1798 -0.1398,0.3196 -0.3196,0.3196l-3.8549 0c-0.1797,0 -0.3195,-0.1398 -0.3195,-0.3196l0 -3.5353c0,-0.9388 -0.6591,-1.7577 -1.5979,-1.9374 -2.5167,-0.4994 -4.8936,-1.4781 -7.0308,-2.9162 -0.779,-0.5194 -1.8376,-0.4195 -2.4967,0.2396l-2.4968 2.4968c-0.0798,0.0799 -0.1597,0.0999 -0.2197,0.0999 -0.0599,0 -0.1398,-0.02 -0.2197,-0.0999l-2.7164 -2.7165c-0.0799,-0.0799 -0.0999,-0.1598 -0.0999,-0.2197 0,-0.0599 0.02,-0.1398 0.0999,-0.2197l2.4967 -2.4967c0.6591,-0.6592 0.779,-1.7178 0.2397,-2.4968 -1.4382,-2.1371 -2.4169,-4.514 -2.9162,-7.0308 -0.1798,-0.9187 -0.9987,-1.5978 -1.9375,-1.5978l-3.5353 0c-0.1798,0 -0.3196,-0.1399 -0.3196,-0.3196l0 -3.855c0,-0.1797 0.1399,-0.3195 0.3196,-0.3195l3.5353 -0.0001c0.9388,0 1.7577,-0.6591 1.9375,-1.5979 0.4993,-2.5166 1.478,-4.8935 2.9162,-7.0307 0.5193,-0.779 0.4194,-1.8377 -0.2397,-2.4968l-2.4967 -2.4967c-0.0799,-0.0799 -0.0999,-0.1598 -0.0999,-0.2197 0,-0.06 0.02,-0.1399 0.0999,-0.2197l2.7164 -2.7165c0.0799,-0.0799 0.1598,-0.0999 0.2197,-0.0999 0.06,0 0.1399,0.02 0.2197,0.0999l2.4968 2.4967c0.6591,0.6592 1.7177,0.779 2.4967,0.2397 2.1372,-1.4381 4.5141,-2.4168 7.0308,-2.9162 0.9188,-0.1797 1.5979,-0.9986 1.5979,-1.9374l0 -3.4954c0,-0.1798 0.1398,-0.3196 0.3195,-0.3196l3.855 0c0.1798,0 0.3196,0.1399 0.3196,0.3196l0 3.5353c0,0.9388 0.6591,1.7577 1.5978,1.9375 2.5168,0.4994 4.8936,1.4781 7.0308,2.9162z"/>
     <path class="fil7" d="M76.0756 46.1255c0,6.4715 5.273,11.7446 11.7445,11.7446 6.4716,0 11.7446,-5.2731 11.7446,-11.7446 0,-6.4715 -5.273,-11.7446 -11.7446,-11.7446 -6.4715,0 -11.7445,5.2731 -11.7445,11.7446zm19.5144 0c0,4.2943 -3.4954,7.7898 -7.7898,7.7898 -4.2944,0 -7.7898,-3.4954 -7.7898,-7.7898 0,-4.2944 3.4954,-7.7898 7.7898,-7.7898 4.2944,0 7.7898,3.5154 7.7898,7.7898z"/>
    </g>
   </g>
   <g>
   </g>
   <g>
   </g>
   <g>
   </g>
   <g>
   </g>
   <g>
   </g>
   <g>
   </g>
   <g>
   </g>
   <g>
   </g>
   <g>
   </g>
   <g>
   </g>
   <g>
   </g>
   <g>
   </g>
   <g>
   </g>
   <g>
   </g>
   <g>
   </g>
  </g>
 </g>
</svg>
